<svg xmlns="http://www.w3.org/2000/svg" viewBox="0 0 192 192"> <!-- Gradient for S letter --> <defs> <linearGradient id="sGradient" x1="0%" y1="0%" x2="100%" y2="100%"> <stop offset="0%" stop-color="#ffffff" /> <stop offset="100%" stop-color="#f0f0f0" /> </linearGradient> <!-- Glow filter --> <filter id="glow" x="-20%" y="-20%" width="140%" height="140%"> <feGaussianBlur stdDeviation="4" result="blur" /> <feComposite in="SourceGraphic" in2="blur" operator="over" /> </filter> </defs> <!-- Creative S letter - with brush stroke style -->
<path d="M96 44 
C75 44, 60 55, 60 75 
C60 95, 80 100, 96 105 
C112 110, 132 115, 132 135 
C132 155, 117 166, 96 166 
C75 166, 60 155, 60 135" 
stroke="url(#sGradient)" 
stroke-width="16" 
stroke-linecap="round" 
fill="none"
filter="url(#glow)" />

<!-- Editing effect lines --> <path d="M60 75 C50 78, 45 85, 45 90" stroke="#00EAFF" stroke-width="4" stroke-linecap="round" /> <path d="M96 105 C105 107, 110 110, 115 115" stroke="#FF3DFF" stroke-width="4" stroke-linecap="round" /> <path d="M132 135 C140 130, 145 125, 147 120" stroke="#00EAFF" stroke-width="4" stroke-linecap="round" /> <path d="M60 135 C50 132, 45 125, 45 120" stroke="#FF3DFF" stroke-width="4" stroke-linecap="round" /> </svg>